<svg xmlns="http://www.w3.org/2000/svg" viewBox="0 0 61.32 61.32">
  <style>
		.cls-1 { fill: #000 } 
		.cls-2 { fill: #000 } 
		.cls-3 { fill: #c586b3 } 
	</style>
  <g>
    <g>
      <path class="cls-1" d="M28.83,53.38a1.06,1.06,0,0,1-1.08-1.08V34.91a10.26,10.26,0,0,1,1.39-5.06,9.72,9.72,0,0,1,3.58-3.51,10.06,10.06,0,0,1,5.07-1.29A10.24,10.24,0,0,1,43,26.36a9.72,9.72,0,0,1,3.6,3.6,10.78,10.78,0,0,1,0,10.3,9.72,9.72,0,0,1-3.6,3.6,10.24,10.24,0,0,1-5.17,1.31,9.72,9.72,0,0,1-4.66-1.11,8.38,8.38,0,0,1-3.22-3V52.3a1.08,1.08,0,0,1-.29.77A1,1,0,0,1,28.83,53.38Zm9-10.22a7.77,7.77,0,0,0,6.88-3.95,8,8,0,0,0,1-4.08,8.12,8.12,0,0,0-1-4.13,7.79,7.79,0,0,0-2.83-2.87,7.7,7.7,0,0,0-4.05-1.07,7.78,7.78,0,0,0-4,1.07A7.55,7.55,0,0,0,30.94,31a8.22,8.22,0,0,0-1,4.13,8.09,8.09,0,0,0,1,4.08,7.5,7.5,0,0,0,2.82,2.88A7.78,7.78,0,0,0,37.79,43.16Z"/>
      <path class="cls-1" d="M55,21.12a1.59,1.59,0,0,1-1.17-.48,1.64,1.64,0,0,1-.49-1.21,1.51,1.51,0,0,1,.52-1.24,1.83,1.83,0,0,1,1.17-.42,1.79,1.79,0,0,1,1.14.42,1.49,1.49,0,0,1,.52,1.24A1.66,1.66,0,0,1,55,21.12Zm0,23.84A1.06,1.06,0,0,1,54,43.88V26.34a1.05,1.05,0,0,1,.31-.79,1.08,1.08,0,0,1,.77-.29,1.11,1.11,0,0,1,.8.29,1.08,1.08,0,0,1,.28.79V43.88A1,1,0,0,1,55.07,45Z"/>
    </g>
    <circle class="cls-2" cx="54.7" cy="16.84" r="5"/>
    <circle class="cls-2" cx="38.75" cy="6" r="6"/>
    <circle class="cls-2" cx="19.75" cy="11.84" r="7"/>
    <circle class="cls-3" cx="8" cy="29.84" r="8"/>
    <circle class="cls-2" cx="10" cy="52.32" r="9"/>
  </g>
</svg>